<?xml version="1.0" encoding="UTF-8"?>
<svg id="Capa_1" data-name="Capa 1" xmlns="http://www.w3.org/2000/svg" viewBox="0 0 4198.93 990.71">
  <defs>
    <style>
      .cls-1 {
        fill: #fff;
      }

      .cls-2 {
        opacity: .95;
      }

      .cls-2, .cls-3, .cls-4, .cls-5, .cls-6 {
        fill: #ea5e28;
      }

      .cls-2, .cls-4, .cls-5, .cls-6 {
        isolation: isolate;
      }

      .cls-7 {
        opacity: .8;
      }

      .cls-8 {
        fill: #356548;
      }

      .cls-4 {
        opacity: .9;
      }

      .cls-9 {
        opacity: .6;
      }

      .cls-10 {
        stroke: #000;
        stroke-linecap: round;
        stroke-linejoin: round;
        stroke-width: 30px;
      }

      .cls-5 {
        opacity: .75;
      }

      .cls-6 {
        opacity: .85;
      }

      .cls-11 {
        fill: #1d1e1c;
      }
    </style>
  </defs>
  <g>
    <g>
      <path class="cls-10" d="m1225.22,162.52h50.25l81.25,664.32h20.5c3.34,2.05,5.01,3.94,5.01,5.7s-1.67,3.65-5.01,5.7h-137.15c-1.52,0-2.73-.5-3.65-1.53-.91-1.02-1.37-2.41-1.37-4.16s.46-3.13,1.37-4.16c.91-1.03,2.12-1.54,3.65-1.54h21.87l-11.83-129.86h-83.69l-9.45,73.34c-.31,3.95-.46,8.05-.46,12.31,0,13.37,2.51,23.48,7.55,30.31,5.03,6.83,11.98,11.01,20.84,12.53l7.33,2.28c1.22,1.22,1.83,2.73,1.83,4.56s-.53,3.27-1.59,4.33-2.36,1.59-3.87,1.59h-77.91c-1.52,0-2.81-.53-3.87-1.59-1.07-1.06-1.59-2.51-1.59-4.33s.46-3.34,1.37-4.56l5.47-1.82c8.81-1.21,15.64-5.16,20.5-11.85,7.29-10.63,12.45-28.25,15.49-52.85l77.19-598.7Zm-11.8,169.95l-45.48,352.66h80.09l-34.61-352.66Z"/>
      <path class="cls-10" d="m1423.24,360.72h-19.14c-1.82,0-3.27-.51-4.33-1.53-1.07-1.03-1.59-2.41-1.59-4.16s.53-3.13,1.59-4.16c1.06-1.03,2.51-1.54,4.33-1.54h99.33v60.14c10.32-27.34,19.97-45.11,28.93-53.31,8.96-8.2,18.45-12.3,28.48-12.3,13.67,0,25.97,6.83,36.91,20.5,13.97,17.62,20.96,39.8,20.96,66.52,0,22.78-4.63,40.02-13.9,51.71-9.27,11.7-19.52,17.54-30.76,17.54-9.11,0-16.71-3.94-22.78-11.85-8.2-10.63-12.3-25.81-12.3-45.56s5.77-38.12,17.31-56.04c5.77-9.11,8.66-15.33,8.66-18.68,0-2.73-1.07-5.08-3.19-7.06-2.13-1.97-4.71-2.96-7.75-2.96-5.77,0-11.24,2.74-16.4,8.21-8.81,9.13-16.71,25.62-23.69,49.49-6.99,23.87-10.48,51.01-10.48,81.41v329.74h23.24c2.12,0,3.79.58,5.01,1.75,1.21,1.17,1.82,2.48,1.82,3.94l-1.37,3.94c-1.82,1.17-3.65,1.75-5.47,1.75h-122.57c-1.52,0-2.81-.5-3.87-1.53-1.07-1.02-1.59-2.41-1.59-4.16s.53-3.13,1.59-4.16c1.06-1.03,2.35-1.54,3.87-1.54h19.14v-466.11Z"/>
      <path class="cls-10" d="m1739.91,152.95v449.73l90.22-185c5.47-11.23,8.2-21.11,8.2-29.62,0-6.98-1.82-12.76-5.47-17.31s-8.66-7.44-15.04-8.66l-17.31-1.37c-1.82-.91-2.73-2.58-2.73-5.01,0-1.82.53-3.34,1.59-4.56,1.06-1.21,2.51-1.82,4.33-1.82h101.14c1.82,0,3.26.61,4.33,1.82,1.06,1.22,1.59,2.73,1.59,4.56,0,2.43-.61,4.1-1.82,5.01l-13.67.91c-5.17.31-9.87,1.22-14.12,2.73-7.29,3.04-13.67,8.35-19.14,15.94-3.33,4.85-10.6,18.93-21.8,42.25l-45.88,92.23,99.13,312.05h15.49c1.82,0,3.34.51,4.56,1.54,1.21,1.02,1.82,2.41,1.82,4.16l-1.37,3.94c-1.52,1.17-3.19,1.75-5.01,1.75h-119.21c-1.82,0-3.27-.5-4.33-1.53-1.07-1.02-1.59-2.41-1.59-4.16s.53-3.13,1.59-4.16c1.06-1.03,2.51-1.54,4.33-1.54h22.33l-72.16-224.17v224.17h18.23c3.34,2.05,5.01,3.94,5.01,5.7s-1.67,3.65-5.01,5.7h-117.55c-1.82,0-3.27-.5-4.33-1.53-1.07-1.02-1.59-2.41-1.59-4.16s.61-3.13,1.82-4.16c1.21-1.03,2.58-1.54,4.1-1.54h16.86V164.34h-16.86c-1.52,0-2.81-.53-3.87-1.59-1.07-1.06-1.59-2.35-1.59-3.87,0-1.82.53-3.26,1.59-4.33s2.35-1.59,3.87-1.59h99.33Z"/>
      <path class="cls-10" d="m2034.7,152.95v233.74c12.45-16.7,23.54-28.02,33.26-33.94,9.72-5.92,21.11-8.88,34.17-8.88,20.35,0,34.78,5.33,43.29,15.96,12.15,14.3,18.23,36.64,18.23,67.04v399.97h16.76c3.1,2.05,4.66,3.94,4.66,5.7s-1.52,3.65-4.57,5.7h-109.32c-2.14-1.75-3.2-3.65-3.2-5.7s1.1-3.94,3.3-5.7h10.83v-424.17c0-10.94-1.39-18.55-4.16-22.8-2.46-3.04-5.85-4.56-10.16-4.56-7.08,0-13.71,4.26-19.86,12.76-8.81,12.76-13.21,29.92-13.21,51.49v387.29h12.3c3.03,2.05,4.56,3.94,4.56,5.7s-1.52,3.65-4.56,5.7h-112.54l-2.28-1.32-1.37-4.38c0-2.04,1.21-3.94,3.65-5.7h20.5V164.34h-20.5c-3.04-1.82-4.56-3.65-4.56-5.47,0-2.12,1.52-4.1,4.56-5.92h100.24Z"/>
      <path class="cls-10" d="m2237,397.62c4.25-1.52,8.35-2.66,12.3-3.42,3.94-.75,7.59-1.14,10.94-1.14,12.15,0,22.4,4.41,30.76,13.21,8.35,8.81,12.53,20.35,12.53,34.63s-4.26,26.28-12.76,35.08c-8.51,8.81-19.9,13.21-34.17,13.21s-25.52-4.48-33.72-13.44c-8.2-8.96-12.3-22.25-12.3-39.87,0-26.12,9.87-47.99,29.62-65.61,19.74-17.61,47.84-26.43,84.29-26.43,32.81,0,56.42,6.15,70.85,18.45,14.42,12.3,21.64,28.02,21.64,47.16v393.67c0,4.56,1.21,8.28,3.65,11.16,2.43,2.89,5.01,4.33,7.75,4.33,7.59,0,15.33-8.04,23.24-24.15,2.12-4.86,4.25-7.29,6.38-7.29l5.47,5.01c0,10.64-6.83,21.87-20.5,33.72-13.67,11.85-30.07,17.77-49.21,17.77-16.4,0-29.09-3.8-38.05-11.39-8.96-7.59-15.72-20.96-20.28-40.1-13.98,20.66-26.2,34.4-36.68,41.23-10.48,6.83-22.86,10.25-37.13,10.25-17.31,0-30.61-4.49-39.87-13.44-9.27-8.96-13.9-20.73-13.9-35.31v-171.77c0-18.52,4.02-32.19,12.07-41.01,8.04-8.81,31.82-19.74,71.31-32.81,17.61-6.07,32.35-12.15,44.2-18.23v-131.22c0-13.67-3.57-24.3-10.71-31.89-7.14-7.59-16.48-11.39-28.02-11.39-26.73,0-46.63,13.67-59.69,41.01Zm98.42,147.63c-19.44,7.6-31.97,15.19-37.59,22.78-5.62,7.6-8.43,19.75-8.43,36.45v192.73c0,6.38,1.14,11.09,3.42,14.12,2.28,3.04,5.08,4.56,8.43,4.56,4.86,0,10.32-5.16,16.4-15.49,11.85-19.14,17.77-42.22,17.77-69.26v-185.9Z"/>
      <path class="cls-10" d="m2570.07,826.83l10.94.87c1.52.88,2.28,2.49,2.28,4.82,0,1.75-1.52,3.65-4.56,5.7h-107.99c-3.04-2.04-4.56-3.94-4.56-5.7s1.52-3.65,4.56-5.7h17.77v-466.11h-17.77c-3.04-1.75-4.56-3.5-4.56-5.25,0-2.04,1.52-4.09,4.56-6.14h99.33v36.47c10.94-16.4,20.96-27.49,30.07-33.27,9.11-5.77,21.11-8.66,36-8.66,16.7,0,29.39,3.42,38.05,10.26,8.66,6.83,16.02,19.68,22.1,38.51,9.72-19.14,19.14-32.06,28.25-38.74,9.11-6.69,21.56-10.03,37.36-10.03,21.56,0,37.43,5.1,47.61,15.28,10.17,10.19,15.26,24.7,15.26,43.56v424.14h15.04c1.82,0,3.34.51,4.56,1.54,1.21,1.02,1.82,2.41,1.82,4.16l-1.37,3.94c-1.52,1.17-3.2,1.75-5.03,1.75h-106.12c-3.05-2.04-4.58-3.94-4.58-5.7s1.52-3.65,4.56-5.7h9.57v-441.04c0-5.17-1.28-9.27-3.84-12.31-2.56-3.04-5.34-4.56-8.35-4.56-6.62,0-13.09,5.02-19.41,15.05-10.23,16.12-15.34,38.62-15.34,67.51v375.36h10.02l2.73,1.32c.91,1.17,1.37,2.63,1.37,4.38s-1.37,3.65-4.1,5.7h-102.52c-2.43-1.75-3.65-3.65-3.65-5.7s1.21-3.94,3.65-5.7h12.3v-434.2c0-8.21-1.37-14.06-4.1-17.56s-5.92-5.25-9.57-5.25c-6.08,0-11.7,3.8-16.86,11.41-10.33,15.81-15.49,33.14-15.49,51.99v393.6Z"/>
      <path class="cls-10" d="m3063.07,798.58c-10.33,7.29-20.89,16.33-31.67,27.11-10.79,10.79-17.39,16.18-19.82,16.18-.91,0-1.67-.46-2.28-1.37-.61-.91-.91-2.88-.91-5.92v-286.14c0-1.21.39-2.2,1.18-2.96.79-.75,1.66-1.14,2.61-1.14,1.58,0,3,.91,4.27,2.73,2.21,2.73,3.32,5.77,3.32,9.11v19.59c0,37.97,5.9,81.26,17.71,129.86,11.81,48.6,27.26,83.23,46.34,103.88,9.38,10.33,20.29,15.49,32.71,15.49,14.23,0,26.65-6.76,37.25-20.28,10.59-13.51,15.9-33.94,15.9-61.28s-4.86-53.76-14.58-82.93c-12.76-38.88-41.01-101.15-84.75-186.81-27.34-53.46-44.73-92.11-52.17-115.96-7.45-23.84-11.16-47-11.16-69.48,0-44.65,10.53-79.58,31.6-104.8,21.06-25.21,45.09-37.82,72.07-37.82,23.04,0,43.8,12.3,62.29,36.91,15.16-8.2,29.86-18.37,44.11-30.53,4.84-4.25,8.02-6.38,9.55-6.38.61,0,1.21.31,1.82.91.61,1.22.91,3.35.91,6.38v247.41c0,3.35-.76,6.08-2.27,8.2-.91,1.22-2.12,1.82-3.63,1.82-1.82,0-3.18-.75-4.09-2.28-.91-1.52-2.73-12.45-5.45-32.81-12.42-94.47-28.93-157.04-49.51-187.72-12.12-17.61-25.89-26.43-41.33-26.43-11.51,0-21.51,5.17-29.99,15.49-8.48,10.33-12.72,25.52-12.72,45.56,0,36.15,20.65,95.53,61.97,178.15l40.1,80.65c27.64,55.59,46.02,99.71,55.13,132.36,9.11,32.66,13.67,61.9,13.67,87.71,0,44.96-11.09,80.19-33.26,105.71-22.18,25.52-48.15,38.27-77.91,38.27-32.2,0-57.87-15.49-77-46.47Z"/>
      <path class="cls-10" d="m3305.01,360.72h-21.41c-2.73,0-4.86-.61-6.38-1.82-1.52-1.21-2.28-2.73-2.28-4.55,0-2.12,1.37-4.39,4.14-6.82,25.74-19.7,44.44-39.32,56.09-58.87,11.65-19.55,21.91-42.35,30.8-68.42,6.44-18.79,9.8-31.82,10.12-39.09l.92-20.92c.87-1.51,2.17-2.27,3.91-2.27s3.11.46,4.13,1.37c1.01.91,1.52,2.13,1.52,3.65v186.35h67.48c2.41,0,4.29.58,5.65,1.75,1.36,1.17,2.04,2.48,2.04,3.94,0,1.75-.61,3.07-1.81,3.94-1.52,1.17-3.48,1.75-5.89,1.75h-67.48v424.62c0,13.08,1.81,22.05,5.43,26.91,2.41,3.65,6.04,5.47,10.87,5.47,10.27,0,19.32-5.92,27.17-17.77,11.78-17.61,17.66-44.65,17.66-81.1v-66.52c0-4.25.9-7.59,2.72-10.02,1.2-1.52,2.71-2.28,4.53-2.28s3.32.76,4.53,2.28c1.81,2.43,2.72,5.77,2.72,10.02v50.58c0,51.34-8.13,87.64-24.38,108.9-16.25,21.27-36.53,31.89-60.83,31.89-22.78,0-39.49-6.23-50.12-18.7-14.58-16.72-21.87-40.44-21.87-71.15v-393.13Z"/>
      <path class="cls-10" d="m3495.01,627.26v-89.3c0-71.38,12-123.78,36-157.19,17.61-24.6,40.1-36.91,67.43-36.91,34.32,0,60.67,18.08,79.05,54.22,18.37,36.15,27.57,83.99,27.57,143.52v98.87c0,77.46-11.85,133.05-35.54,166.76-17.02,24.31-39.64,36.45-67.89,36.45-16.4,0-31.37-4.26-44.88-12.76-13.52-8.5-25.74-23.84-36.68-46.02-10.94-22.17-17.85-51.64-20.73-88.39-2.89-36.75-4.33-59.84-4.33-69.26Zm128.49-224.63c0-17.01-2.48-28.93-7.45-35.77-4.97-6.83-10.76-10.25-17.37-10.25-5.72,0-10.83,2.81-15.34,8.43-4.51,5.62-6.77,14.2-6.77,25.74v382.73c0,24,2.7,40.25,8.12,48.75,4.21,6.08,9.92,9.11,17.15,9.11s12.25-2.66,16.01-7.97c3.76-5.31,5.65-16.78,5.65-34.4v-386.38Z"/>
      <path class="cls-10" d="m3759.28,360.72h-19.14c-1.82,0-3.27-.51-4.33-1.53-1.07-1.03-1.59-2.41-1.59-4.16s.53-3.13,1.59-4.16c1.06-1.03,2.51-1.54,4.33-1.54h99.33v60.14c10.32-27.34,19.97-45.11,28.93-53.31,8.96-8.2,18.45-12.3,28.48-12.3,13.67,0,25.97,6.83,36.91,20.5,13.97,17.62,20.96,39.8,20.96,66.52,0,22.78-4.63,40.02-13.9,51.71-9.27,11.7-19.52,17.54-30.76,17.54-9.11,0-16.71-3.94-22.78-11.85-8.2-10.63-12.3-25.81-12.3-45.56s5.77-38.12,17.31-56.04c5.77-9.11,8.66-15.33,8.66-18.68,0-2.73-1.07-5.08-3.19-7.06-2.13-1.97-4.71-2.96-7.75-2.96-5.77,0-11.24,2.74-16.4,8.21-8.81,9.13-16.71,25.62-23.69,49.49-6.99,23.87-10.48,51.01-10.48,81.41v329.74h23.24c2.12,0,3.79.58,5.01,1.75,1.21,1.17,1.82,2.48,1.82,3.94l-1.37,3.94c-1.82,1.17-3.65,1.75-5.47,1.75h-122.57c-1.52,0-2.81-.5-3.87-1.53-1.07-1.02-1.59-2.41-1.59-4.16s.53-3.13,1.59-4.16c1.06-1.03,2.35-1.54,3.87-1.54h19.14v-466.11Z"/>
      <path class="cls-10" d="m4055.44,595.37v169.5c0,26.43,3.03,43.9,9.11,52.4,4.56,6.38,12,9.57,22.33,9.57,17.01,0,32.19-9.57,45.56-28.7,22.17-32.19,34.02-76.09,35.54-131.68.3-18.23,1.14-28.55,2.51-30.98,1.37-2.43,3.26-3.65,5.7-3.65,2.12,0,3.79.91,5.01,2.73,1.52,2.43,2.28,8.2,2.28,17.31,0,54.07-9.5,99.56-28.48,136.46-18.99,36.91-44.58,55.36-76.77,55.36-30.07,0-54.98-14.2-74.72-42.6-19.75-28.4-29.62-89.99-29.62-184.76v-66.98c0-72.6,13.36-127.73,40.1-165.4,19.14-26.73,42.22-40.1,69.26-40.1,32.19,0,57.03,17.16,74.5,51.49,17.46,34.33,26.2,76.09,26.2,125.3v74.72h-128.49Zm46.93-12.3v-194.1c0-12.45-2.41-21.87-7.22-28.25-3.31-4.56-8.27-6.83-14.89-6.83s-12.41,2.89-17.37,8.66c-4.97,5.77-7.45,14.58-7.45,26.43v194.1h46.93Z"/>
    </g>
    <g>
      <path class="cls-1" d="m1225.22,162.52h50.25l81.25,664.32h20.5c3.34,2.05,5.01,3.94,5.01,5.7s-1.67,3.65-5.01,5.7h-137.15c-1.52,0-2.73-.5-3.65-1.53-.91-1.02-1.37-2.41-1.37-4.16s.46-3.13,1.37-4.16c.91-1.03,2.12-1.54,3.65-1.54h21.87l-11.83-129.86h-83.69l-9.45,73.34c-.31,3.95-.46,8.05-.46,12.31,0,13.37,2.51,23.48,7.55,30.31,5.03,6.83,11.98,11.01,20.84,12.53l7.33,2.28c1.22,1.22,1.83,2.73,1.83,4.56s-.53,3.27-1.59,4.33-2.36,1.59-3.87,1.59h-77.91c-1.52,0-2.81-.53-3.87-1.59-1.07-1.06-1.59-2.51-1.59-4.33s.46-3.34,1.37-4.56l5.47-1.82c8.81-1.21,15.64-5.16,20.5-11.85,7.29-10.63,12.45-28.25,15.49-52.85l77.19-598.7Zm-11.8,169.95l-45.48,352.66h80.09l-34.61-352.66Z"/>
      <path class="cls-1" d="m1423.24,360.72h-19.14c-1.82,0-3.27-.51-4.33-1.53-1.07-1.03-1.59-2.41-1.59-4.16s.53-3.13,1.59-4.16c1.06-1.03,2.51-1.54,4.33-1.54h99.33v60.14c10.32-27.34,19.97-45.11,28.93-53.31,8.96-8.2,18.45-12.3,28.48-12.3,13.67,0,25.97,6.83,36.91,20.5,13.97,17.62,20.96,39.8,20.96,66.52,0,22.78-4.63,40.02-13.9,51.71-9.27,11.7-19.52,17.54-30.76,17.54-9.11,0-16.71-3.94-22.78-11.85-8.2-10.63-12.3-25.81-12.3-45.56s5.77-38.12,17.31-56.04c5.77-9.11,8.66-15.33,8.66-18.68,0-2.73-1.07-5.08-3.19-7.06-2.13-1.97-4.71-2.96-7.75-2.96-5.77,0-11.24,2.74-16.4,8.21-8.81,9.13-16.71,25.62-23.69,49.49-6.99,23.87-10.48,51.01-10.48,81.41v329.74h23.24c2.12,0,3.79.58,5.01,1.75,1.21,1.17,1.82,2.48,1.82,3.94l-1.37,3.94c-1.82,1.17-3.65,1.75-5.47,1.75h-122.57c-1.52,0-2.81-.5-3.87-1.53-1.07-1.02-1.59-2.41-1.59-4.16s.53-3.13,1.59-4.16c1.06-1.03,2.35-1.54,3.87-1.54h19.14v-466.11Z"/>
      <path class="cls-1" d="m1739.91,152.95v449.73l90.22-185c5.47-11.23,8.2-21.11,8.2-29.62,0-6.98-1.82-12.76-5.47-17.31s-8.66-7.44-15.04-8.66l-17.31-1.37c-1.82-.91-2.73-2.58-2.73-5.01,0-1.82.53-3.34,1.59-4.56,1.06-1.21,2.51-1.82,4.33-1.82h101.14c1.82,0,3.26.61,4.33,1.82,1.06,1.22,1.59,2.73,1.59,4.56,0,2.43-.61,4.1-1.82,5.01l-13.67.91c-5.17.31-9.87,1.22-14.12,2.73-7.29,3.04-13.67,8.35-19.14,15.94-3.33,4.85-10.6,18.93-21.8,42.25l-45.88,92.23,99.13,312.05h15.49c1.82,0,3.34.51,4.56,1.54,1.21,1.02,1.82,2.41,1.82,4.16l-1.37,3.94c-1.52,1.17-3.19,1.75-5.01,1.75h-119.21c-1.82,0-3.27-.5-4.33-1.53-1.07-1.02-1.59-2.41-1.59-4.16s.53-3.13,1.59-4.16c1.06-1.03,2.51-1.54,4.33-1.54h22.33l-72.16-224.17v224.17h18.23c3.34,2.05,5.01,3.94,5.01,5.7s-1.67,3.65-5.01,5.7h-117.55c-1.82,0-3.27-.5-4.33-1.53-1.07-1.02-1.59-2.41-1.59-4.16s.61-3.13,1.82-4.16c1.21-1.03,2.58-1.54,4.1-1.54h16.86V164.34h-16.86c-1.52,0-2.81-.53-3.87-1.59-1.07-1.06-1.59-2.35-1.59-3.87,0-1.82.53-3.26,1.59-4.33s2.35-1.59,3.87-1.59h99.33Z"/>
      <path class="cls-1" d="m2034.7,152.95v233.74c12.45-16.7,23.54-28.02,33.26-33.94,9.72-5.92,21.11-8.88,34.17-8.88,20.35,0,34.78,5.33,43.29,15.96,12.15,14.3,18.23,36.64,18.23,67.04v399.97h16.76c3.1,2.05,4.66,3.94,4.66,5.7s-1.52,3.65-4.57,5.7h-109.32c-2.14-1.75-3.2-3.65-3.2-5.7s1.1-3.94,3.3-5.7h10.83v-424.17c0-10.94-1.39-18.55-4.16-22.8-2.46-3.04-5.85-4.56-10.16-4.56-7.08,0-13.71,4.26-19.86,12.76-8.81,12.76-13.21,29.92-13.21,51.49v387.29h12.3c3.03,2.05,4.56,3.94,4.56,5.7s-1.52,3.65-4.56,5.7h-112.54l-2.28-1.32-1.37-4.38c0-2.04,1.21-3.94,3.65-5.7h20.5V164.34h-20.5c-3.04-1.82-4.56-3.65-4.56-5.47,0-2.12,1.52-4.1,4.56-5.92h100.24Z"/>
      <path class="cls-1" d="m2237,397.62c4.25-1.52,8.35-2.66,12.3-3.42,3.94-.75,7.59-1.14,10.94-1.14,12.15,0,22.4,4.41,30.76,13.21,8.35,8.81,12.53,20.35,12.53,34.63s-4.26,26.28-12.76,35.08c-8.51,8.81-19.9,13.21-34.17,13.21s-25.52-4.48-33.72-13.44c-8.2-8.96-12.3-22.25-12.3-39.87,0-26.12,9.87-47.99,29.62-65.61,19.74-17.61,47.84-26.43,84.29-26.43,32.81,0,56.42,6.15,70.85,18.45,14.42,12.3,21.64,28.02,21.64,47.16v393.67c0,4.56,1.21,8.28,3.65,11.16,2.43,2.89,5.01,4.33,7.75,4.33,7.59,0,15.33-8.04,23.24-24.15,2.12-4.86,4.25-7.29,6.38-7.29l5.47,5.01c0,10.64-6.83,21.87-20.5,33.72-13.67,11.85-30.07,17.77-49.21,17.77-16.4,0-29.09-3.8-38.05-11.39-8.96-7.59-15.72-20.96-20.28-40.1-13.98,20.66-26.2,34.4-36.68,41.23-10.48,6.83-22.86,10.25-37.13,10.25-17.31,0-30.61-4.49-39.87-13.44-9.27-8.96-13.9-20.73-13.9-35.31v-171.77c0-18.52,4.02-32.19,12.07-41.01,8.04-8.81,31.82-19.74,71.31-32.81,17.61-6.07,32.35-12.15,44.2-18.23v-131.22c0-13.67-3.57-24.3-10.71-31.89-7.14-7.59-16.48-11.39-28.02-11.39-26.73,0-46.63,13.67-59.69,41.01Zm98.42,147.63c-19.44,7.6-31.97,15.19-37.59,22.78-5.62,7.6-8.43,19.75-8.43,36.45v192.73c0,6.38,1.14,11.09,3.42,14.12,2.28,3.04,5.08,4.56,8.43,4.56,4.86,0,10.32-5.16,16.4-15.49,11.85-19.14,17.77-42.22,17.77-69.26v-185.9Z"/>
      <path class="cls-1" d="m2570.07,826.83l10.94.87c1.52.88,2.28,2.49,2.28,4.82,0,1.75-1.52,3.65-4.56,5.7h-107.99c-3.04-2.04-4.56-3.94-4.56-5.7s1.52-3.65,4.56-5.7h17.77v-466.11h-17.77c-3.04-1.75-4.56-3.5-4.56-5.25,0-2.04,1.52-4.09,4.56-6.14h99.33v36.47c10.94-16.4,20.96-27.49,30.07-33.27,9.11-5.77,21.11-8.66,36-8.66,16.7,0,29.39,3.42,38.05,10.26,8.66,6.83,16.02,19.68,22.1,38.51,9.72-19.14,19.14-32.06,28.25-38.74,9.11-6.69,21.56-10.03,37.36-10.03,21.56,0,37.43,5.1,47.61,15.28,10.17,10.19,15.26,24.7,15.26,43.56v424.14h15.04c1.82,0,3.34.51,4.56,1.54,1.21,1.02,1.82,2.41,1.82,4.16l-1.37,3.94c-1.52,1.17-3.2,1.75-5.03,1.75h-106.12c-3.05-2.04-4.58-3.94-4.58-5.7s1.52-3.65,4.56-5.7h9.57v-441.04c0-5.17-1.28-9.27-3.84-12.31-2.56-3.04-5.34-4.56-8.35-4.56-6.62,0-13.09,5.02-19.41,15.05-10.23,16.12-15.34,38.62-15.34,67.51v375.36h10.02l2.73,1.32c.91,1.17,1.37,2.63,1.37,4.38s-1.37,3.65-4.1,5.7h-102.52c-2.43-1.75-3.65-3.65-3.65-5.7s1.21-3.94,3.65-5.7h12.3v-434.2c0-8.21-1.37-14.06-4.1-17.56s-5.92-5.25-9.57-5.25c-6.08,0-11.7,3.8-16.86,11.41-10.33,15.81-15.49,33.14-15.49,51.99v393.6Z"/>
      <path class="cls-1" d="m3063.07,798.58c-10.33,7.29-20.89,16.33-31.67,27.11-10.79,10.79-17.39,16.18-19.82,16.18-.91,0-1.67-.46-2.28-1.37-.61-.91-.91-2.88-.91-5.92v-286.14c0-1.21.39-2.2,1.18-2.96.79-.75,1.66-1.14,2.61-1.14,1.58,0,3,.91,4.27,2.73,2.21,2.73,3.32,5.77,3.32,9.11v19.59c0,37.97,5.9,81.26,17.71,129.86,11.81,48.6,27.26,83.23,46.34,103.88,9.38,10.33,20.29,15.49,32.71,15.49,14.23,0,26.65-6.76,37.25-20.28,10.59-13.51,15.9-33.94,15.9-61.28s-4.86-53.76-14.58-82.93c-12.76-38.88-41.01-101.15-84.75-186.81-27.34-53.46-44.73-92.11-52.17-115.96-7.45-23.84-11.16-47-11.16-69.48,0-44.65,10.53-79.58,31.6-104.8,21.06-25.21,45.09-37.82,72.07-37.82,23.04,0,43.8,12.3,62.29,36.91,15.16-8.2,29.86-18.37,44.11-30.53,4.84-4.25,8.02-6.38,9.55-6.38.61,0,1.21.31,1.82.91.61,1.22.91,3.35.91,6.38v247.41c0,3.35-.76,6.08-2.27,8.2-.91,1.22-2.12,1.82-3.63,1.82-1.82,0-3.18-.75-4.09-2.28-.91-1.52-2.73-12.45-5.45-32.81-12.42-94.47-28.93-157.04-49.51-187.72-12.12-17.61-25.89-26.43-41.33-26.43-11.51,0-21.51,5.17-29.99,15.49-8.48,10.33-12.72,25.52-12.72,45.56,0,36.15,20.65,95.53,61.97,178.15l40.1,80.65c27.64,55.59,46.02,99.71,55.13,132.36,9.11,32.66,13.67,61.9,13.67,87.71,0,44.96-11.09,80.19-33.26,105.71-22.18,25.52-48.15,38.27-77.91,38.27-32.2,0-57.87-15.49-77-46.47Z"/>
      <path class="cls-1" d="m3305.01,360.72h-21.41c-2.73,0-4.86-.61-6.38-1.82-1.52-1.21-2.28-2.73-2.28-4.55,0-2.12,1.37-4.39,4.14-6.82,25.74-19.7,44.44-39.32,56.09-58.87,11.65-19.55,21.91-42.35,30.8-68.42,6.44-18.79,9.8-31.82,10.12-39.09l.92-20.92c.87-1.51,2.17-2.27,3.91-2.27s3.11.46,4.13,1.37c1.01.91,1.52,2.13,1.52,3.65v186.35h67.48c2.41,0,4.29.58,5.65,1.75,1.36,1.17,2.04,2.48,2.04,3.94,0,1.75-.61,3.07-1.81,3.94-1.52,1.17-3.48,1.75-5.89,1.75h-67.48v424.62c0,13.08,1.81,22.05,5.43,26.91,2.41,3.65,6.04,5.47,10.87,5.47,10.27,0,19.32-5.92,27.17-17.77,11.78-17.61,17.66-44.65,17.66-81.1v-66.52c0-4.25.9-7.59,2.72-10.02,1.2-1.52,2.71-2.28,4.53-2.28s3.32.76,4.53,2.28c1.81,2.43,2.72,5.77,2.72,10.02v50.58c0,51.34-8.13,87.64-24.38,108.9-16.25,21.27-36.53,31.89-60.83,31.89-22.78,0-39.49-6.23-50.12-18.7-14.58-16.72-21.87-40.44-21.87-71.15v-393.13Z"/>
      <path class="cls-1" d="m3495.01,627.26v-89.3c0-71.38,12-123.78,36-157.19,17.61-24.6,40.1-36.91,67.43-36.91,34.32,0,60.67,18.08,79.05,54.22,18.37,36.15,27.57,83.99,27.57,143.52v98.87c0,77.46-11.85,133.05-35.54,166.76-17.02,24.31-39.64,36.45-67.89,36.45-16.4,0-31.37-4.26-44.88-12.76-13.52-8.5-25.74-23.84-36.68-46.02-10.94-22.17-17.85-51.64-20.73-88.39-2.89-36.75-4.33-59.84-4.33-69.26Zm128.49-224.63c0-17.01-2.48-28.93-7.45-35.77-4.97-6.83-10.76-10.25-17.37-10.25-5.72,0-10.83,2.81-15.34,8.43-4.51,5.62-6.77,14.2-6.77,25.74v382.73c0,24,2.7,40.25,8.12,48.75,4.21,6.08,9.92,9.11,17.15,9.11s12.25-2.66,16.01-7.97c3.76-5.31,5.65-16.78,5.65-34.4v-386.38Z"/>
      <path class="cls-1" d="m3759.28,360.72h-19.14c-1.82,0-3.27-.51-4.33-1.53-1.07-1.03-1.59-2.41-1.59-4.16s.53-3.13,1.59-4.16c1.06-1.03,2.51-1.54,4.33-1.54h99.33v60.14c10.32-27.34,19.97-45.11,28.93-53.31,8.96-8.2,18.45-12.3,28.48-12.3,13.67,0,25.97,6.83,36.91,20.5,13.97,17.62,20.96,39.8,20.96,66.52,0,22.78-4.63,40.02-13.9,51.71-9.27,11.7-19.52,17.54-30.76,17.54-9.11,0-16.71-3.94-22.78-11.85-8.2-10.63-12.3-25.81-12.3-45.56s5.77-38.12,17.31-56.04c5.77-9.11,8.66-15.33,8.66-18.68,0-2.73-1.07-5.08-3.19-7.06-2.13-1.97-4.71-2.96-7.75-2.96-5.77,0-11.24,2.74-16.4,8.21-8.81,9.13-16.71,25.62-23.69,49.49-6.99,23.87-10.48,51.01-10.48,81.41v329.74h23.24c2.12,0,3.79.58,5.01,1.75,1.21,1.17,1.82,2.48,1.82,3.94l-1.37,3.94c-1.82,1.17-3.65,1.75-5.47,1.75h-122.57c-1.52,0-2.81-.5-3.87-1.53-1.07-1.02-1.59-2.41-1.59-4.16s.53-3.13,1.59-4.16c1.06-1.03,2.35-1.54,3.87-1.54h19.14v-466.11Z"/>
      <path class="cls-1" d="m4055.44,595.37v169.5c0,26.43,3.03,43.9,9.11,52.4,4.56,6.38,12,9.57,22.33,9.57,17.01,0,32.19-9.57,45.56-28.7,22.17-32.19,34.02-76.09,35.54-131.68.3-18.23,1.14-28.55,2.51-30.98,1.37-2.43,3.26-3.65,5.7-3.65,2.12,0,3.79.91,5.01,2.73,1.52,2.43,2.28,8.2,2.28,17.31,0,54.07-9.5,99.56-28.48,136.46-18.99,36.91-44.58,55.36-76.77,55.36-30.07,0-54.98-14.2-74.72-42.6-19.75-28.4-29.62-89.99-29.62-184.76v-66.98c0-72.6,13.36-127.73,40.1-165.4,19.14-26.73,42.22-40.1,69.26-40.1,32.19,0,57.03,17.16,74.5,51.49,17.46,34.33,26.2,76.09,26.2,125.3v74.72h-128.49Zm46.93-12.3v-194.1c0-12.45-2.41-21.87-7.22-28.25-3.31-4.56-8.27-6.83-14.89-6.83s-12.41,2.89-17.37,8.66c-4.97,5.77-7.45,14.58-7.45,26.43v194.1h46.93Z"/>
    </g>
  </g>
  <g>
    <circle class="cls-11" cx="495.36" cy="495.36" r="495.36"/>
    <g>
      <circle class="cls-8" cx="495.36" cy="495.41" r="450.32"/>
      <g>
        <g>
          <polygon class="cls-1" points="885.84 270.07 495.64 44.8 105.45 270.09 105.45 720.63 495.64 945.91 885.84 720.63 885.84 270.07"/>
          <polygon class="cls-4" points="501.53 243.68 280.37 626.74 722.7 626.74 501.53 243.68"/>
          <polygon class="cls-6" points="105.45 270.09 501.53 243.68 280.37 626.74 105.45 270.09"/>
          <polygon class="cls-5" points="501.53 243.68 885.84 270.07 722.7 626.74 501.53 243.68"/>
          <polygon class="cls-2" points="105.45 270.09 105.45 720.63 280.37 626.74 105.45 270.09"/>
          <polygon class="cls-2" points="722.7 626.74 885.84 270.07 885.84 720.63 722.7 626.74"/>
          <polygon class="cls-6" points="885.84 720.63 495.64 945.91 722.7 626.74 885.84 720.63"/>
          <polygon class="cls-5" points="495.64 945.91 722.7 626.74 280.37 626.74 495.64 945.91"/>
          <polygon class="cls-6" points="105.45 720.63 280.37 626.74 495.64 945.91 105.45 720.63"/>
          <polygon class="cls-2" points="105.45 270.09 501.53 243.68 495.64 44.8 105.45 270.09"/>
          <polygon class="cls-6" points="501.53 243.68 495.64 44.8 885.84 270.07 501.53 243.68"/>
        </g>
        <g>
          <path class="cls-1" d="m431.57,544.26h47.55c4.74,0,8.36.97,10.84,2.92,2.49,1.95,3.73,4.59,3.73,7.93,0,2.97-.99,5.49-2.95,7.57-1.98,2.07-4.97,3.1-8.97,3.1h-67.06c-4.56,0-8.11-1.26-10.66-3.78-2.56-2.52-3.82-5.48-3.82-8.88,0-2.18.83-5.08,2.47-8.7,1.64-3.62,3.42-6.45,5.37-8.52,8.07-8.38,15.37-15.56,21.87-21.54,6.5-5.98,11.15-9.91,13.94-11.8,4.97-3.51,9.13-7.06,12.43-10.61,3.31-3.55,5.84-7.19,7.57-10.93,1.73-3.73,2.59-7.39,2.59-10.97,0-3.89-.92-7.37-2.77-10.43s-4.38-5.46-7.57-7.15-6.66-2.56-10.43-2.56c-7.96,0-14.21,3.49-18.77,10.48-.61.92-1.62,3.4-3.04,7.48-1.42,4.07-3.04,7.21-4.83,9.38-1.78,2.18-4.41,3.28-7.87,3.28-3.04,0-5.57-1.01-7.57-3.01-2-2-3.01-4.74-3.01-8.2,0-4.2.94-8.56,2.83-13.11,1.87-4.56,4.68-8.68,8.43-12.39,3.73-3.71,8.47-6.7,14.21-8.97,5.75-2.29,12.46-3.42,20.17-3.42,9.29,0,17.22,1.46,23.78,4.38,4.25,1.95,7.98,4.61,11.2,8.02,3.22,3.4,5.73,7.33,7.51,11.8,1.78,4.47,2.68,9.1,2.68,13.89,0,7.53-1.87,14.37-5.6,20.55-3.73,6.16-7.55,10.99-11.44,14.48-3.89,3.49-10.39,8.97-19.54,16.45-9.15,7.48-15.42,13.28-18.81,17.4-1.46,1.64-2.95,3.62-4.47,5.93v-.04Z"/>
          <path class="cls-1" d="m602.84,500.26c0,9.96-.61,18.52-1.82,25.69-1.22,7.17-3.46,13.67-6.74,19.49-4.12,7.17-9.47,12.7-16.03,16.59s-13.85,5.84-21.87,5.84c-9.24,0-17.51-2.61-24.82-7.84-7.31-5.22-12.83-12.45-16.54-21.69-1.89-5.04-3.26-10.61-4.14-16.72-.88-6.11-1.31-12.72-1.31-19.81,0-9.17.49-17.44,1.46-24.79.97-7.35,2.49-13.67,4.56-18.95,3.58-8.75,8.79-15.42,15.62-19.99,6.83-4.59,14.99-6.88,24.46-6.88,6.25,0,11.94,1.03,17.04,3.04,5.1,2.04,9.58,5.01,13.44,8.93,3.85,3.91,7.12,8.75,9.8,14.54,4.61,10.02,6.92,24.21,6.92,42.55h-.02Zm-24.97-1.82c0-11.11-.67-20.21-2-27.29s-3.58-12.41-6.74-16.03-7.53-5.42-13.11-5.42c-8.02,0-13.58,4.03-16.72,12.12-3.13,8.07-4.7,20.53-4.7,37.36,0,11.42.67,20.77,2,28.06s3.58,12.81,6.74,16.54c3.15,3.73,7.44,5.6,12.84,5.6s9.96-1.95,13.11-5.84c3.15-3.89,5.37-9.44,6.65-16.68,1.28-7.22,1.91-16.7,1.91-28.42h.02Z"/>
        </g>
        <g class="cls-9">
          <path class="cls-3" d="m307.73,408.35l21.81-37.79c2.18-3.76,4.61-6.2,7.3-7.28,2.68-1.08,5.35-.86,8.02.67,2.36,1.37,3.91,3.31,4.65,5.82.74,2.52.18,5.37-1.66,8.56l-30.77,53.28c-2.09,3.62-4.72,5.87-7.89,6.74-3.17.86-6.11.52-8.81-1.03-1.73-1.01-3.66-2.99-5.78-5.94-2.13-2.95-3.55-5.69-4.31-8.18-2.95-10.27-5.31-19.35-7.1-27.25-1.77-7.91-2.77-13.4-2.97-16.48-.52-5.57-1.42-10.48-2.72-14.75-1.3-4.25-3.04-7.93-5.22-11.02-2.18-3.1-4.68-5.46-7.53-7.1-3.08-1.78-6.27-2.65-9.56-2.58s-6.34.97-9.15,2.72-5.08,4.12-6.81,7.12c-3.66,6.32-3.75,12.9-.29,19.72.45.9,1.96,2.85,4.54,5.85,2.58,3.01,4.32,5.71,5.24,8.14.92,2.43.58,5.01-1.01,7.76-1.39,2.41-3.35,3.96-5.85,4.63-2.5.67-5.15.22-7.89-1.37-3.33-1.93-6.38-4.68-9.13-8.27-2.76-3.58-4.76-7.71-5.98-12.37-1.22-4.67-1.44-9.8-.61-15.4.83-5.6,3.01-11.47,6.54-17.6,4.27-7.39,9.06-13.01,14.39-16.9,3.49-2.49,7.33-4.23,11.51-5.22,4.18-.99,8.45-1.19,12.83-.56,4.36.63,8.47,2.04,12.27,4.23,5.98,3.46,10.57,8.09,13.76,13.87,3.19,5.8,5.28,11.04,6.27,15.73.99,4.68,2.36,12.37,4.11,23.07,1.75,10.7,3.48,18.34,5.19,22.93.63,1.91,1.51,4,2.67,6.27l-.04-.02Z"/>
        </g>
        <g class="cls-7">
          <path class="cls-3" d="m642.05,355.63l64.34-37.16c-16.1-6.66-25.36-12.07-27.76-16.23-1.13-1.98-1.37-4.2-.67-6.63s2.07-4.27,4.16-5.46c2.4-1.39,4.61-1.66,6.61-.79,2,.85,5.01,2.68,9.01,5.46,5.98,4.16,11.44,7.08,16.39,8.79s10.02,2.81,15.22,3.33c5.21.52,8.47.94,9.76,1.24,1.31.31,2.61,1.57,3.89,3.78,1.44,2.5,1.64,5.06.58,7.69s-3.3,4.92-6.68,6.88l-80.97,46.74c-9.47,5.48-16.09,4.97-19.81-1.48-1.66-2.88-2.04-5.75-1.1-8.61.92-2.86,3.28-5.39,7.04-7.57h-.02Z"/>
          <path class="cls-3" d="m687.7,436.33l13.15-7.6-20.5-35.5c-2.59-4.49-3.51-8.43-2.77-11.83.74-3.4,2.85-6.12,6.34-8.14.9-.52,1.89-.88,3.01-1.08,1.12-.2,2.36-.27,3.76-.2,1.39.07,2.77.2,4.12.36s3.01.36,4.97.61l71.78,8.54c4.72.54,8.27,1.17,10.66,1.91,2.4.72,4.23,2.2,5.51,4.41,4.14,7.17,2.11,13.11-6.11,17.85l-54.74,31.59,1.75,3.04c2.09,3.64,3.28,6.83,3.55,9.58.27,2.76-1.26,5.12-4.61,7.04-2.74,1.59-5.24,1.84-7.53.76-2.29-1.06-4.47-3.4-6.52-6.97l-2.49-4.31-13.15,7.6c-3.64,2.09-6.79,2.85-9.49,2.27s-4.81-2.22-6.38-4.9c-1.57-2.68-1.86-5.3-.97-7.98.88-2.67,3.08-5.03,6.61-7.08l.04.02Zm11.44-47.14l17.56,30.41,41.09-23.72-58.65-6.68Z"/>
        </g>
        <g class="cls-7">
          <path class="cls-3" d="m534.37,781.56c0,5.48-1.5,10.65-4.49,15.49-2.99,4.85-7.37,8.72-13.15,11.64-5.78,2.9-12.54,4.36-20.26,4.36-6.52,0-12.25-.85-17.18-2.54-4.94-1.69-9.04-4.03-12.34-7.03-3.3-2.99-5.73-6.36-7.31-10.11-1.59-3.75-2.38-7.75-2.38-11.96,0-5.37,1.39-10.16,4.14-14.39,2.77-4.22,6.9-7.67,12.37-10.36-4.67-1.8-8.52-4.18-11.58-7.12-3.06-2.94-5.39-6.32-6.95-10.2s-2.34-8.16-2.34-12.86c0-6.9,1.68-13.17,5.01-18.79,3.35-5.62,8.25-10.02,14.72-13.19,6.47-3.17,14.09-4.77,22.86-4.77s16.88,1.59,23.34,4.77c6.47,3.17,11.35,7.55,14.63,13.11,3.3,5.57,4.94,11.8,4.94,18.7,0,14.73-6.95,24.86-20.88,30.33,11.24,5.26,16.84,13.56,16.84,24.91l.02-.02Zm-58.94-54.42c0,4.27.88,8,2.63,11.19,1.75,3.17,4.22,5.62,7.4,7.31,3.17,1.69,6.74,2.54,10.68,2.54,5.58,0,10.27-1.86,14.05-5.58,3.78-3.73,5.67-8.93,5.67-15.62,0-4.27-.88-8.03-2.67-11.29-1.78-3.26-4.2-5.78-7.28-7.57-3.06-1.78-6.5-2.67-10.27-2.67s-7.3.9-10.36,2.72c-3.06,1.8-5.48,4.36-7.24,7.64-1.75,3.3-2.63,7.06-2.63,11.35v-.02Zm20.55,70.2c5.15,0,9.29-1.6,12.45-4.81,3.15-3.21,4.72-7.33,4.72-12.37,0-4.67-1.62-8.54-4.85-11.64-3.22-3.1-7.4-4.65-12.5-4.65-2.58,0-4.92.41-7.03,1.22-2.11.81-3.93,1.96-5.42,3.4s-2.67,3.17-3.49,5.19c-.83,2-1.22,4.2-1.22,6.61,0,3.22.72,6.14,2.18,8.72,1.46,2.58,3.49,4.61,6.12,6.09,2.63,1.48,5.64,2.22,9.04,2.22v.02Z"/>
        </g>
      </g>
    </g>
  </g>
</svg>